<svg xmlns="http://www.w3.org/2000/svg" style="display:none">
  <!-- PROFILE -->
  <symbol id="profile" viewBox="0 0 24 24">
    <circle cx="12" cy="8" r="4" />
    <path d="M4 20c0-4 3.6-7 8-7s8 3 8 7" />
  </symbol>

  <!-- SETTINGS -->
  <symbol id="settings" viewBox="0 0 24 24">
    <circle cx="12" cy="12" r="3" />
    <path d="M12 2v2m0 16v2M4.22 4.22l1.42 1.42m12.72 12.72 1.42 1.42M2 12h2m16 0h2M4.22 19.78l1.42-1.42M18.36 5.64l1.42-1.42"/>
  </symbol>

  <!-- TEMPLATE -->
  <symbol id="logout" viewBox="0 0 24 24">
    <path d="M9 21H5a2 2 0 0 1-2-2V5a2 2 0 0 1 2-2h4" />
    <polyline points="16 17 21 12 16 7" />
    <line x1="21" y1="12" x2="9" y2="12" />
  </symbol>

  <!-- TEMPLATE -->
  <symbol id="NAME-OF-ICON" viewBox="0 0 24 24">
  </symbol>
</svg>